<svg width="310" height="48" viewBox="0 0 310 48" fill="none" xmlns="http://www.w3.org/2000/svg">
<g filter="url(#filter0_d_2075_13159)">
<mask id="path-1-inside-1_2075_13159" fill="white">
<path fill-rule="evenodd" clip-rule="evenodd" d="M290.115 1C291.395 1 292.597 1.61234 293.35 2.64731L306.441 20.6475C307.461 22.05 307.461 23.95 306.441 25.3525L293.35 43.3527C292.597 44.3877 291.395 45 290.115 45H6.00713C2.73799 45 0.849368 41.2912 2.77219 38.6473L12.4411 25.3525C13.461 23.95 13.461 22.05 12.4411 20.6475L2.77219 7.35269C0.849372 4.70882 2.73798 1 6.00713 1H290.115Z"/>
</mask>
<path fill-rule="evenodd" clip-rule="evenodd" d="M290.115 1C291.395 1 292.597 1.61234 293.35 2.64731L306.441 20.6475C307.461 22.05 307.461 23.95 306.441 25.3525L293.35 43.3527C292.597 44.3877 291.395 45 290.115 45H6.00713C2.73799 45 0.849368 41.2912 2.77219 38.6473L12.4411 25.3525C13.461 23.95 13.461 22.05 12.4411 20.6475L2.77219 7.35269C0.849372 4.70882 2.73798 1 6.00713 1H290.115Z" fill="white"/>
<path d="M306.441 20.6475L307.25 20.0593L307.25 20.0593L306.441 20.6475ZM306.441 25.3525L307.25 25.9407L307.25 25.9407L306.441 25.3525ZM12.4411 25.3525L13.2499 25.9407L13.2499 25.9407L12.4411 25.3525ZM12.4411 20.6475L13.2499 20.0593L13.2499 20.0593L12.4411 20.6475ZM2.77219 38.6473L1.96345 38.0591L2.77219 38.6473ZM293.35 43.3527L294.159 43.9409L293.35 43.3527ZM293.35 2.64731L294.159 2.05914L293.35 2.64731ZM293.35 2.64731L292.541 3.23549L305.632 21.2356L306.441 20.6475L307.25 20.0593L294.159 2.05914L293.35 2.64731ZM306.441 20.6475L305.632 21.2356C306.397 22.2875 306.397 23.7125 305.632 24.7644L306.441 25.3525L307.25 25.9407C308.525 24.1875 308.525 21.8125 307.25 20.0593L306.441 20.6475ZM306.441 25.3525L305.632 24.7644L292.541 42.7645L293.35 43.3527L294.159 43.9409L307.25 25.9407L306.441 25.3525ZM290.115 45V44H6.00713V45V46H290.115V45ZM2.77219 38.6473L3.58092 39.2355L13.2499 25.9407L12.4411 25.3525L11.6324 24.7644L1.96345 38.0591L2.77219 38.6473ZM12.4411 25.3525L13.2499 25.9407C14.5247 24.1875 14.5247 21.8125 13.2499 20.0593L12.4411 20.6475L11.6323 21.2356C12.3973 22.2875 12.3973 23.7125 11.6323 24.7644L12.4411 25.3525ZM12.4411 20.6475L13.2499 20.0593L3.58093 6.76452L2.77219 7.35269L1.96346 7.94086L11.6324 21.2356L12.4411 20.6475ZM6.00713 1V2H290.115V1V0H6.00713V1ZM2.77219 7.35269L3.58093 6.76452C2.13881 4.78161 3.55528 2 6.00713 2V1V0C1.92069 0 -0.440067 4.63602 1.96346 7.94086L2.77219 7.35269ZM6.00713 45V44C3.55527 44 2.13881 41.2184 3.58092 39.2355L2.77219 38.6473L1.96345 38.0591C-0.440074 41.364 1.9207 46 6.00713 46V45ZM293.35 43.3527L292.541 42.7645C291.977 43.5407 291.075 44 290.115 44V45V46C291.715 46 293.218 45.2346 294.159 43.9409L293.35 43.3527ZM293.35 2.64731L294.159 2.05914C293.218 0.765422 291.715 0 290.115 0V1V2C291.075 2 291.977 2.45925 292.541 3.23549L293.35 2.64731Z" fill="#C1C9D2" mask="url(#path-1-inside-1_2075_13159)"/>
</g>
<defs>
<filter id="filter0_d_2075_13159" x="0" y="0" width="309.206" height="48" filterUnits="userSpaceOnUse" color-interpolation-filters="sRGB">
<feFlood flood-opacity="0" result="BackgroundImageFix"/>
<feColorMatrix in="SourceAlpha" type="matrix" values="0 0 0 0 0 0 0 0 0 0 0 0 0 0 0 0 0 0 127 0" result="hardAlpha"/>
<feOffset dy="1"/>
<feGaussianBlur stdDeviation="1"/>
<feColorMatrix type="matrix" values="0 0 0 0 0.215686 0 0 0 0 0.254902 0 0 0 0 0.317647 0 0 0 0.08 0"/>
<feBlend mode="normal" in2="BackgroundImageFix" result="effect1_dropShadow_2075_13159"/>
<feBlend mode="normal" in="SourceGraphic" in2="effect1_dropShadow_2075_13159" result="shape"/>
</filter>
</defs>
</svg>
