<svg width="287" height="48" viewBox="0 0 287 48" fill="none" xmlns="http://www.w3.org/2000/svg">
<g filter="url(#filter0_d_4002_11565)">
<mask id="path-1-inside-1_4002_11565" fill="white">
<path d="M284.152 41C284.152 43.2091 282.361 45 280.152 45H6.00712C2.73798 45 0.849369 41.2912 2.77219 38.6473L12.4411 25.3525C13.4609 23.9501 13.4609 22.0499 12.4411 20.6475L2.77219 7.35269C0.849374 4.70882 2.73799 1 6.00713 1H280.152C282.361 1 284.152 2.79086 284.152 5V41Z"/>
</mask>
<path d="M284.152 41C284.152 43.2091 282.361 45 280.152 45H6.00712C2.73798 45 0.849369 41.2912 2.77219 38.6473L12.4411 25.3525C13.4609 23.9501 13.4609 22.0499 12.4411 20.6475L2.77219 7.35269C0.849374 4.70882 2.73799 1 6.00713 1H280.152C282.361 1 284.152 2.79086 284.152 5V41Z" fill="white"/>
<path d="M12.4411 25.3525L13.2499 25.9407L13.2499 25.9406L12.4411 25.3525ZM12.4411 20.6475L13.2499 20.0594L13.2499 20.0593L12.4411 20.6475ZM2.77219 7.35269L1.96346 7.94086L2.77219 7.35269ZM2.77219 38.6473L1.96345 38.0591L2.77219 38.6473ZM280.152 45V44H6.00712V45V46H280.152V45ZM2.77219 38.6473L3.58093 39.2355L13.2499 25.9407L12.4411 25.3525L11.6324 24.7644L1.96345 38.0591L2.77219 38.6473ZM12.4411 25.3525L13.2499 25.9406C14.5246 24.1876 14.5246 21.8124 13.2499 20.0594L12.4411 20.6475L11.6323 21.2356C12.3971 22.2874 12.3971 23.7126 11.6323 24.7644L12.4411 25.3525ZM12.4411 20.6475L13.2499 20.0593L3.58093 6.76452L2.77219 7.35269L1.96346 7.94086L11.6324 21.2356L12.4411 20.6475ZM6.00713 1V2H280.152V1V0H6.00713V1ZM284.152 5H283.152V41H284.152H285.152V5H284.152ZM2.77219 7.35269L3.58093 6.76452C2.13881 4.78161 3.55528 2 6.00713 2V1V0C1.9207 0 -0.440065 4.63602 1.96346 7.94086L2.77219 7.35269ZM6.00712 45V44C3.55527 44 2.13881 41.2184 3.58093 39.2355L2.77219 38.6473L1.96345 38.0591C-0.440069 41.364 1.92069 46 6.00712 46V45ZM280.152 1V2C281.809 2 283.152 3.34314 283.152 5H284.152H285.152C285.152 2.23858 282.913 0 280.152 0V1ZM280.152 45V46C282.913 46 285.152 43.7614 285.152 41H284.152H283.152C283.152 42.6569 281.809 44 280.152 44V45Z" fill="#C1C9D2" mask="url(#path-1-inside-1_4002_11565)"/>
</g>
<defs>
<filter id="filter0_d_4002_11565" x="0" y="0" width="286.152" height="48" filterUnits="userSpaceOnUse" color-interpolation-filters="sRGB">
<feFlood flood-opacity="0" result="BackgroundImageFix"/>
<feColorMatrix in="SourceAlpha" type="matrix" values="0 0 0 0 0 0 0 0 0 0 0 0 0 0 0 0 0 0 127 0" result="hardAlpha"/>
<feOffset dy="1"/>
<feGaussianBlur stdDeviation="1"/>
<feColorMatrix type="matrix" values="0 0 0 0 0.215686 0 0 0 0 0.254902 0 0 0 0 0.317647 0 0 0 0.08 0"/>
<feBlend mode="normal" in2="BackgroundImageFix" result="effect1_dropShadow_4002_11565"/>
<feBlend mode="normal" in="SourceGraphic" in2="effect1_dropShadow_4002_11565" result="shape"/>
</filter>
</defs>
</svg>
