<svg width="291" height="44" viewBox="0 0 291 44" fill="none" xmlns="http://www.w3.org/2000/svg">
<mask id="path-1-inside-1_4002_11541" fill="white">
<path d="M280.236 0.000787677C280.236 0.000911841 280.236 0.00103425 280.236 0.00114491L290.384 19.9424C290.964 21.0821 290.964 22.4306 290.384 23.5703L280.237 43.5104C280.236 43.5106 280.236 43.5109 280.236 43.5111C280.236 43.512 280.236 43.5127 280.235 43.5127H3.99999C1.79085 43.5127 0 41.7218 0 39.5127V4C0 1.79086 1.79086 0 4 0H280.236C280.236 0 280.236 0.000352655 280.236 0.000787677Z"/>
</mask>
<path d="M280.236 0.000787677C280.236 0.000911841 280.236 0.00103425 280.236 0.00114491L290.384 19.9424C290.964 21.0821 290.964 22.4306 290.384 23.5703L280.237 43.5104C280.236 43.5106 280.236 43.5109 280.236 43.5111C280.236 43.512 280.236 43.5127 280.235 43.5127H3.99999C1.79085 43.5127 0 41.7218 0 39.5127V4C0 1.79086 1.79086 0 4 0H280.236C280.236 0 280.236 0.000352655 280.236 0.000787677Z" fill="white"/>
<path d="M290.384 19.9424L291.275 19.4889L291.275 19.4889L290.384 19.9424ZM290.384 23.5703L291.275 24.0239L291.275 24.0238L290.384 23.5703ZM280.237 43.5104L281.128 43.9639L280.237 43.5104ZM280.236 0.00114491L279.345 0.454667L280.236 0.00114491ZM280.236 0.00114491L279.345 0.454667L289.493 20.3959L290.384 19.9424L291.275 19.4889L281.128 -0.452377L280.236 0.00114491ZM290.384 19.9424L289.492 20.3958C289.927 21.2507 289.927 22.2621 289.493 23.1168L290.384 23.5703L291.275 24.0238C292 22.5991 292 20.9136 291.275 19.4889L290.384 19.9424ZM290.384 23.5703L289.493 23.1168L279.345 43.0569L280.237 43.5104L281.128 43.9639L291.275 24.0239L290.384 23.5703ZM280.235 43.5127V42.5127H3.99999V43.5127V44.5127H280.235V43.5127ZM0 39.5127H1V4H0H-1V39.5127H0ZM4 0V1H280.236V0V-1H4V0ZM280.236 0V1C279.707 1 279.236 0.575503 279.236 0.000787677H280.236H281.236C281.236 -0.574798 280.765 -1 280.236 -1V0ZM0 4H1C1 2.34315 2.34315 1 4 1V0V-1C1.23858 -1 -1 1.23857 -1 4H0ZM280.236 43.5111H279.236C279.236 42.9597 279.683 42.5127 280.235 42.5127V43.5127V44.5127C280.788 44.5127 281.236 44.0643 281.236 43.5111H280.236ZM280.237 43.5104L279.345 43.0569C279.274 43.1978 279.236 43.3535 279.236 43.5111H280.236H281.236C281.236 43.6683 281.199 43.8235 281.128 43.9639L280.237 43.5104ZM3.99999 43.5127V42.5127C2.34314 42.5127 1 41.1696 1 39.5127H0H-1C-1 42.2741 1.23857 44.5127 3.99999 44.5127V43.5127ZM280.236 0.00114491L281.128 -0.452377C281.199 -0.311999 281.236 -0.156721 281.236 0.000787677H280.236H279.236C279.236 0.158545 279.274 0.314067 279.345 0.454667L280.236 0.00114491Z" fill="#C1C9D2" mask="url(#path-1-inside-1_4002_11541)"/>
</svg>
